<svg width="512" height="380" version="1.1" viewBox="0 0 512 380" xmlns="http://www.w3.org/2000/svg">
	<g fill="none" stroke="#f39200" stroke-linecap="round" stroke-linejoin="round" stroke-miterlimit="10" stroke-width="20">
		<path d="m146.6 370.1h-105.2c-17.44 0-31.57-14.13-31.57-31.57l0.05-252.5 0.05-36.28c0-22 17.84-39.84 39.84-39.84h281.1c22 0 39.84 17.84 39.84 39.84v36.28l-0.1 252.5c-7e-3 17.44-14.14 31.57-31.58 31.57h-104.5"/>
		<path d="m226.1 226-52.96-30.58c-2.864-1.653-6.443 0.413-6.443 3.72v61.16c0 3.307 3.579 5.373 6.443 3.72l52.96-30.58c2.863-1.653 2.863-5.786 0-7.439z"/>
		<circle cx="191.5" cy="228.7" r="83.14"/>
		<path d="m9.98 86 387.4 0.28c32.87 0.0238 59.52 26.65 59.52 59.52l0.01 149"/>
		<path d="m411.8 282.9v54.68c0 16.7 13.54 30.24 30.24 30.24h29.76c16.7 0 30.24-13.54 30.24-30.24v-54.68s-11.98 11.94-45.12 11.94-45.12-11.94-45.12-11.94"/>
		<path d="m502 282.9v-9.788c0-16.7-13.54-30.24-30.24-30.24v8e-3h-29.78c-16.7 0-30.24 13.54-30.24 30.24v9.788"/>
		<path d="m52.89 48.6v0"/>
		<path d="m92.05 48.6v0"/>
		<path d="m131.2 48.6v0"/>
		<path d="m191.4 370.1v0"/>
	</g>
</svg>