<svg  viewBox="0 0 500 500" version="1.1" xmlns="http://www.w3.org/2000/svg">
   <g stroke="#000" stroke-width="1px" fill="none">
      <path fill="#b3b3b3" d="m267.7 497.4-7.985 2.114 3.572-13.47-55.7-30.94 23.65-24.97 24.47-13.77 2.422-10.58-12.01-9.359 4.897-19.55-14.52-.6632-6.337-21.8-27.34-2.512 3.256-55.88-7.581-18.36-23.52-.1675-6.586-32.26-59.59-28.76.3229-20.95-17.49 1.298-26.88 15.27-24.06-1.695 1.487-20.19-19.72 7.396-16.49-17.79-5.55-18.87 19.18-30.23 29.74-6.009 7.534-37.75-8.53-24.5 11.37-2.11-8.758-4.026.5583-8.066 31.68-4.991 17.18 16.62 34.21-17.41-19.06-27.03 32.44 1.896 32.08-16.75-1.684 38.53 11.75 13.92 49.78-15.41 28.2 3.892 17.29-27.77 20.54 34.15 49.38 37.64 54.16 21.53 21.4-1.974 37.67 26.6 22.62 4.243 8.556 29.86-6.612 22.06-27.06 28.92-17.27 20.81-6.074 60.31-35.51 64.53-43.27 9.499-34.38 20.15-8.408 41.45z"/>
      <path d="m.3677 160.9c.6929 1.079 91.22 35.89 91.22 35.89l43.23-24.49 21.43 9.58 1.11 28.49 22.09-.2424-11.11 35.06"/>
      <path d="m134.5 42.46 19.09 45.28 37.76-20.59-1.318-14.13"/>
      <path d="m191.4 67.12 32.01 32.88-26.62 57.35-.2556 23.68-40.27.8575"/>
      <path d="m196.8 157.4c1.789 2.043 22.37 32.28 22.37 32.28l83.28 5.446-4.615 42.18-32.12 62.8-59.67-4.066"/>
      <path d="m251 376.9 44.07-52.4-28.85-23.78"/>
      <path d="m255.7 416.4 32.63 6.907 23.55 21.28"/>
      <path d="m258.1 405.8 29.81 4.435 11.25-8.106 28.15.6894"/>
      <path d="m329.5 392-23.2-28.55-39.06-5.95"/>
      <path d="m295 324.4 42.67.6498 14.91 37.15 19.74-5.922 3.864 12.84"/>
      <path d="m372.3 356.3 31.15-8.984 5.488-12.32 9.855 6.055"/>
      <path d="m409 335 16.55-36.46 13.78 5.3"/>
      <path d="m425.5 298.6 9.619-23.13s-75.74-21.78-76.08-19.88c-.189 1.048-19.88 20.28-19.88 20.28l-3.525 27.67-34.84 5.087-10.67 11.85"/>
      <path d="m298.3 233.9 56.76.6565 4.02 20.98"/>
      <path d="m355.1 234.5 1.964-32.85-30.92-65.9-24.32 60.22"/>
      <path d="m326.1 135.8c8.758-12.63 29.11-50.3 29.11-50.3"/>
      <path d="m245.4 38.37-.4814 9.057s30.27 41.96 32.09 39.8 28.86-39.36 28.86-39.36"/>
      <path d="m409.4 107-17.56 44.49-28.99 16.5-5.798 33.68 11.68 7.356 48.61-28.07 10.18-25-9.848-49.72"/>
      <path d="m423.7 165.1 26.44 3.476 15.53-38.82"/>
      <path d="m495.6 151.6-20.07 4.844-6.055-8.508-12.63 3.425"/>
      <path d="m499.7 165.7-26.3 7.657-2.246-9.198-20.45 4.007"/>
      <path d="m417.3 181 75.68 6.82"/>
      <path d="m464.8 218.1-9.074-8.93 5.987-8.119-7.709-16.75"/>
      <path d="m456.8 190.3 22.23 12.92"/>
      <path d="m339.2 275.9-13.68-1.073 1.425-8.354 14.56 1.103z"/>
   </g>
</svg>
